<svg xmlns="http://www.w3.org/2000/svg" viewBox="0 0 64 64">
  <style>
    .bg { fill: #f2e6d0; }
    .sun { stroke: #ff5a1f; }
    @media (prefers-color-scheme: dark) {
      .bg { fill: #17120d; }
      .sun { stroke: #e18a58; }
    }
  </style>
  <rect class="bg" width="64" height="64" rx="14"/>
  <g class="sun" fill="none" stroke-width="2.4" stroke-linecap="round">
    <line x1="46.0" y1="32.0" x2="58.0" y2="32.0"/><line x1="44.9" y1="37.4" x2="56.0" y2="41.9"/><line x1="41.9" y1="41.9" x2="50.4" y2="50.4"/><line x1="37.4" y1="44.9" x2="41.9" y2="56.0"/><line x1="32.0" y1="46.0" x2="32.0" y2="58.0"/><line x1="26.6" y1="44.9" x2="22.1" y2="56.0"/><line x1="22.1" y1="41.9" x2="13.6" y2="50.4"/><line x1="19.1" y1="37.4" x2="8.0" y2="41.9"/><line x1="18.0" y1="32.0" x2="6.0" y2="32.0"/><line x1="19.1" y1="26.6" x2="8.0" y2="22.1"/><line x1="22.1" y1="22.1" x2="13.6" y2="13.6"/><line x1="26.6" y1="19.1" x2="22.1" y2="8.0"/><line x1="32.0" y1="18.0" x2="32.0" y2="6.0"/><line x1="37.4" y1="19.1" x2="41.9" y2="8.0"/><line x1="41.9" y1="22.1" x2="50.4" y2="13.6"/><line x1="44.9" y1="26.6" x2="56.0" y2="22.1"/>
    <circle cx="32" cy="32" r="10"/>
    <circle cx="32" cy="32" r="5" fill="#ff5a1f" stroke="none" class="core"/>
  </g>
</svg>
